<mxfile host="drawio-plugin" modified="2021-12-03T22:24:34.865Z" agent="5.0 (Windows NT 6.2; Win64; x64) AppleWebKit/537.36 (KHTML, like Gecko) Chrome/89.0.4389.114 Safari/537.36" etag="ViAHuZF7ZKFAlVbVEWsG" version="14.7.4" type="embed"><diagram id="23iRSUPoRavnBvh4doch" name="Page-1"><mxGraphModel dx="2489" dy="1891" grid="1" gridSize="10" guides="1" tooltips="1" connect="1" arrows="1" fold="1" page="1" pageScale="1" pageWidth="827" pageHeight="1169" math="0" shadow="0"><root><mxCell id="0"/><mxCell id="1" parent="0"/><mxCell id="11" value="" style="edgeStyle=orthogonalEdgeStyle;rounded=0;orthogonalLoop=1;jettySize=auto;html=1;exitX=0.5;exitY=0;exitDx=0;exitDy=0;" parent="1" source="37" target="9" edge="1"><mxGeometry relative="1" as="geometry"><mxPoint x="-100" y="-780.5" as="sourcePoint"/></mxGeometry></mxCell><mxCell id="2" value="Payment Notification" style="rounded=0;whiteSpace=wrap;html=1;" parent="1" vertex="1"><mxGeometry x="-215" y="-1150" width="120" height="60" as="geometry"/></mxCell><mxCell id="5" value="successful" style="text;html=1;strokeColor=none;fillColor=none;align=center;verticalAlign=middle;whiteSpace=wrap;rounded=0;" parent="1" vertex="1"><mxGeometry x="-290" y="-800" width="40" height="20" as="geometry"/></mxCell><mxCell id="7" value="failed" style="text;html=1;strokeColor=none;fillColor=none;align=center;verticalAlign=middle;whiteSpace=wrap;rounded=0;" parent="1" vertex="1"><mxGeometry x="-78" y="-800" width="40" height="20" as="geometry"/></mxCell><mxCell id="9" value="&lt;b&gt;&lt;u&gt;blmkt_orders&lt;/u&gt;&lt;/b&gt;&lt;br&gt;set order_status=0 (unpaid)" style="shape=cylinder3;whiteSpace=wrap;html=1;boundedLbl=1;backgroundOutline=1;size=15;" parent="1" vertex="1"><mxGeometry y="-845.5" width="160" height="130" as="geometry"/></mxCell><mxCell id="18" value="" style="edgeStyle=orthogonalEdgeStyle;rounded=0;orthogonalLoop=1;jettySize=auto;html=1;" parent="1" target="17" edge="1"><mxGeometry relative="1" as="geometry"><mxPoint x="-440" y="-649.5" as="sourcePoint"/></mxGeometry></mxCell><mxCell id="46" style="edgeStyle=orthogonalEdgeStyle;rounded=0;orthogonalLoop=1;jettySize=auto;html=1;exitX=0.5;exitY=1;exitDx=0;exitDy=0;exitPerimeter=0;entryX=1;entryY=0.5;entryDx=0;entryDy=0;entryPerimeter=0;" parent="1" source="16" target="47" edge="1"><mxGeometry relative="1" as="geometry"><mxPoint x="-365" y="-339.5" as="targetPoint"/></mxGeometry></mxCell><mxCell id="16" value="&lt;b&gt;&lt;u&gt;blmkt_links&lt;br&gt;&lt;/u&gt;&lt;/b&gt;&lt;span&gt;1) set order_status=20 (paid)&lt;br&gt;for each&lt;br&gt;&lt;/span&gt;blmkt_order_details.blmkt_links_id&lt;br&gt;&lt;span&gt;2)&amp;nbsp;update&amp;nbsp;&lt;/span&gt;&lt;code class=&quot;sql&quot;&gt;blmkt_links_last_order_id&lt;/code&gt;&lt;span&gt;&lt;br&gt;&lt;/span&gt;" style="shape=cylinder3;whiteSpace=wrap;html=1;boundedLbl=1;backgroundOutline=1;size=15;" parent="1" vertex="1"><mxGeometry x="-350" y="-605" width="230" height="120" as="geometry"/></mxCell><mxCell id="20" value="" style="edgeStyle=orthogonalEdgeStyle;rounded=0;orthogonalLoop=1;jettySize=auto;html=1;" parent="1" source="17" target="19" edge="1"><mxGeometry relative="1" as="geometry"/></mxCell><mxCell id="44" style="edgeStyle=orthogonalEdgeStyle;rounded=0;orthogonalLoop=1;jettySize=auto;html=1;exitX=1;exitY=0.5;exitDx=0;exitDy=0;entryX=0.543;entryY=0.012;entryDx=0;entryDy=0;entryPerimeter=0;" parent="1" source="17" target="16" edge="1"><mxGeometry relative="1" as="geometry"/></mxCell><mxCell id="17" value="New / Old Order&lt;br&gt;check blmkt_order_details.blmkt_links_id&lt;br&gt;&amp;nbsp; &amp;nbsp;0=New&lt;br&gt;&amp;gt;0=Old" style="rhombus;whiteSpace=wrap;html=1;" parent="1" vertex="1"><mxGeometry x="-560" y="-760" width="220" height="140" as="geometry"/></mxCell><mxCell id="48" style="edgeStyle=orthogonalEdgeStyle;rounded=0;orthogonalLoop=1;jettySize=auto;html=1;exitX=0.5;exitY=1;exitDx=0;exitDy=0;entryX=0;entryY=0.5;entryDx=0;entryDy=0;entryPerimeter=0;" parent="1" source="19" target="47" edge="1"><mxGeometry relative="1" as="geometry"/></mxCell><mxCell id="19" value="&lt;b&gt;&lt;u&gt;blmkt_links&lt;/u&gt;&lt;/b&gt;&lt;span&gt;&lt;br&gt;insert each item from blmkt_order_details with order_id from IPN to blmkt_links with status=20 (active) into blmkt_links&lt;br&gt;&lt;/span&gt;" style="shape=cylinder;whiteSpace=wrap;html=1;boundedLbl=1;backgroundOutline=1;" parent="1" vertex="1"><mxGeometry x="-800" y="-610" width="220" height="130" as="geometry"/></mxCell><mxCell id="24" value="New" style="text;html=1;strokeColor=none;fillColor=none;align=center;verticalAlign=middle;whiteSpace=wrap;rounded=0;" parent="1" vertex="1"><mxGeometry x="-600" y="-715.5" width="40" height="20" as="geometry"/></mxCell><mxCell id="25" value="Old" style="text;html=1;strokeColor=none;fillColor=none;align=center;verticalAlign=middle;whiteSpace=wrap;rounded=0;" parent="1" vertex="1"><mxGeometry x="-340" y="-710" width="40" height="20" as="geometry"/></mxCell><mxCell id="39" style="edgeStyle=orthogonalEdgeStyle;rounded=0;orthogonalLoop=1;jettySize=auto;html=1;exitX=0.5;exitY=1;exitDx=0;exitDy=0;entryX=0;entryY=0.5;entryDx=0;entryDy=0;" parent="1" source="31" target="37" edge="1"><mxGeometry relative="1" as="geometry"/></mxCell><mxCell id="31" value="check for &lt;br&gt;duplicate IPN in&amp;nbsp;&lt;br&gt;&lt;u&gt;&lt;b&gt;IPN_log_paypro&lt;/b&gt;&lt;/u&gt;" style="rhombus;whiteSpace=wrap;html=1;" parent="1" vertex="1"><mxGeometry x="-225" y="-1040" width="140" height="140" as="geometry"/></mxCell><mxCell id="32" value="" style="edgeStyle=orthogonalEdgeStyle;rounded=0;orthogonalLoop=1;jettySize=auto;html=1;endArrow=none;" parent="1" source="2" target="31" edge="1"><mxGeometry relative="1" as="geometry"><mxPoint x="-160" y="-950" as="sourcePoint"/><mxPoint x="-160" y="-740" as="targetPoint"/></mxGeometry></mxCell><mxCell id="43" style="edgeStyle=orthogonalEdgeStyle;rounded=0;orthogonalLoop=1;jettySize=auto;html=1;exitX=0.5;exitY=1;exitDx=0;exitDy=0;entryX=0.5;entryY=0;entryDx=0;entryDy=0;" parent="1" source="37" target="17" edge="1"><mxGeometry relative="1" as="geometry"/></mxCell><mxCell id="37" value="&lt;u&gt;&lt;b&gt;IPN_log_paypro&lt;/b&gt;&lt;/u&gt;&lt;br&gt;&lt;span&gt;Insert IPN to database as log history&lt;/span&gt;" style="rhombus;whiteSpace=wrap;html=1;direction=south;" parent="1" vertex="1"><mxGeometry x="-230" y="-837" width="150" height="114.5" as="geometry"/></mxCell><mxCell id="47" value="&lt;u style=&quot;font-weight: bold&quot;&gt;blmkt_orders&lt;/u&gt;&lt;br&gt;&lt;span&gt;set order_status=20 (paid)&lt;/span&gt;&lt;br&gt;&lt;span&gt;set&amp;nbsp;paypro_subscription_id&lt;/span&gt;&lt;br&gt;&lt;span&gt;set&amp;nbsp;paypro_order_id&amp;nbsp;&lt;/span&gt;&lt;br&gt;&lt;span&gt;set&amp;nbsp; ipn_log_paypro_id&lt;br&gt;&lt;br&gt;&lt;b&gt;&lt;u&gt;blmkt_links&lt;br&gt;&lt;/u&gt;&lt;/b&gt;update paid_until to first day of next month&lt;br&gt;&lt;/span&gt;" style="shape=cylinder3;whiteSpace=wrap;html=1;boundedLbl=1;backgroundOutline=1;size=15;" parent="1" vertex="1"><mxGeometry x="-535" y="-400" width="170" height="170" as="geometry"/></mxCell></root></mxGraphModel></diagram></mxfile>